<svg width="96" height="43" viewBox="0 0 96 43" fill="none" xmlns="http://www.w3.org/2000/svg">
<rect x="5.1976" y="15.529" width="85.0102" height="23.5884" rx="1.5" transform="rotate(-4.46938 5.1976 15.529)" stroke="#FF1212"/>
<rect x="2.06463" y="13.3005" width="90.594" height="28.3146" rx="1" transform="rotate(-4.46938 2.06463 13.3005)" stroke="#FF1212" stroke-width="2"/>
<path d="M21.9458 27.5077L17.4634 27.9055L17.8744 32.5357L15.5398 32.7429L14.5343 21.4124L21.9115 20.7578L22.0793 22.6488L17.0367 23.0963L17.2963 26.0223L21.7787 25.6245L21.9458 27.5077ZM26.7535 31.7478L24.4189 31.9549L23.4134 20.6245L25.748 20.4173L26.7535 31.7478ZM38.1385 30.7374L35.8039 30.9446L30.5977 23.8928L31.2593 31.3479L28.9247 31.5551L27.9192 20.2246L30.2537 20.0174L35.4691 27.0841L34.8062 19.6134L37.133 19.407L38.1385 30.7374ZM42.6598 30.3362L40.3252 30.5434L39.3197 19.2129L41.6543 19.0057L42.6598 30.3362ZM50.4425 26.6494C50.4033 26.2085 50.2178 25.885 49.8858 25.6792C49.5533 25.4682 48.9709 25.2689 48.1386 25.0813C47.3058 24.8886 46.642 24.686 46.1474 24.4737C44.7991 23.8927 44.0727 23.0134 43.9682 21.8357C43.9138 21.2235 44.0367 20.6636 44.3367 20.1559C44.6415 19.6426 45.1036 19.2225 45.7229 18.8956C46.3475 18.5683 47.0618 18.369 47.866 18.2976C48.6753 18.2258 49.4095 18.3097 50.0687 18.5492C50.7274 18.7836 51.2543 19.1525 51.6493 19.656C52.0495 20.159 52.2798 20.7504 52.3401 21.43L50.0055 21.6372C49.9595 21.1184 49.7604 20.7308 49.4082 20.4745C49.0556 20.213 48.5835 20.1085 47.9921 20.1609C47.4214 20.2116 46.9887 20.3729 46.6939 20.6448C46.3986 20.9115 46.2684 21.242 46.3034 21.6363C46.3361 22.0046 46.5477 22.297 46.9381 22.5133C47.3338 22.7292 47.9018 22.9141 48.6423 23.068C50.0058 23.3496 51.0173 23.7592 51.6768 24.2967C52.3363 24.8343 52.7052 25.544 52.7834 26.426C52.8704 27.4065 52.5679 28.2098 51.8757 28.836C51.1831 29.4569 50.2091 29.8231 48.9536 29.9345C48.082 30.0119 47.2742 29.9241 46.5302 29.6711C45.7857 29.413 45.1995 29.0232 44.7715 28.5017C44.3487 27.9798 44.1048 27.353 44.0399 26.6215L46.3823 26.4137C46.4932 27.664 47.2958 28.2228 48.7899 28.0902C49.345 28.0409 49.7683 27.891 50.0598 27.6403C50.3508 27.3844 50.4784 27.0541 50.4425 26.6494ZM63.8577 28.455L61.5231 28.6622L61.0922 23.8063L56.5398 24.2103L56.9707 29.0662L54.6361 29.2734L53.6306 17.9429L55.9652 17.7357L56.3726 22.3271L60.9251 21.9231L60.5176 17.3317L62.8522 17.1245L63.8577 28.455ZM72.2855 22.758L67.8032 23.1558L68.0725 26.1908L73.3331 25.7239L73.4995 27.5994L65.9043 28.2734L64.8988 16.9429L72.4784 16.2703L72.6462 18.1613L67.4012 18.6267L67.6409 21.3271L72.1232 20.9293L72.2855 22.758ZM74.8691 27.4778L73.8636 16.1474L77.3499 15.838C78.346 15.7496 79.2558 15.8963 80.0792 16.2781C80.9073 16.6543 81.5787 17.2379 82.0934 18.0288C82.6076 18.8146 82.9114 19.734 83.0048 20.7872L83.0511 21.3085C83.1446 22.3617 83.0098 23.3175 82.6467 24.1758C82.2889 25.0337 81.7357 25.7234 80.9872 26.2447C80.2387 26.766 79.3692 27.0732 78.3788 27.1664L74.8691 27.4778ZM76.366 17.8312L77.0373 25.3952L78.1656 25.2951C79.0787 25.214 79.75 24.8538 80.1795 24.2144C80.6091 23.5749 80.7798 22.6997 80.6916 21.5885L80.6384 20.9893C80.5362 19.8376 80.2202 18.9872 79.6905 18.4381C79.1602 17.8839 78.436 17.6475 77.5177 17.729L76.366 17.8312Z" fill="#FF0000"/>
<path d="M43.3167 1.91818L41.9365 5.55068L38.1726 6.46708C37.4975 6.6309 37.3027 7.50378 37.8445 7.94248L40.8587 10.3852L40.5634 14.2626C40.5105 14.9634 41.2825 15.4122 41.8583 15.0328L45.1035 12.9109L48.6864 14.3928C49.3224 14.6559 49.9978 14.074 49.8156 13.3953L48.8048 9.64029L51.3126 6.67997C51.7634 6.14823 51.4098 5.32677 50.716 5.29126L46.8473 5.09034L44.8161 1.77763C44.4525 1.1873 43.5662 1.26244 43.3167 1.91818Z" fill="#FF0101"/>
</svg>
