<svg width="1099" height="336" viewBox="0 0 1099 336" fill="none" xmlns="http://www.w3.org/2000/svg">
<path fill-rule="evenodd" clip-rule="evenodd" d="M161.313 72.7525C141.898 82.6369 125.026 98.0673 113.322 118.341C81.1115 174.13 100.226 245.468 156.016 277.678C211.806 309.889 283.144 290.774 315.354 234.984C331.105 207.703 334.582 176.703 327.5 148.379C301.234 153.212 273.664 151.508 247.398 142.568C262.673 157.358 266.57 181.154 255.457 200.402C242.345 223.111 213.307 230.892 190.598 217.781C167.889 204.67 160.108 175.632 173.219 152.922C182.731 136.447 200.626 127.829 218.405 129.346C193.993 115.147 174.742 95.4609 161.313 72.7525Z" fill="#FB3640"/>
<path fill-rule="evenodd" clip-rule="evenodd" d="M165.186 67.0444C178.615 89.7526 197.866 109.438 222.278 123.637C229.006 124.211 235.717 126.236 241.951 129.835C245.412 131.833 248.526 134.201 251.272 136.86C277.538 145.799 305.108 147.503 331.374 142.67C323.973 113.073 305.041 86.397 276.533 69.9379C241.016 49.4325 199.199 49.7279 165.186 67.0444Z" fill="#542E71"/>
<path fill-rule="evenodd" clip-rule="evenodd" d="M573.151 130.38C568.991 113.746 558.351 98.7541 542.329 89.5038C522.369 77.9795 498.866 78.1455 479.751 87.8777C487.298 100.64 498.117 111.704 511.837 119.684C515.618 120.006 519.39 121.144 522.894 123.167C524.839 124.29 526.589 125.621 528.132 127.115C542.894 132.139 558.389 133.097 573.151 130.38Z" fill="#542E71"/>
<path d="M442.75 150.188H407.281V248H387.672V150.188H352.516V134.25H442.75V150.188ZM546.344 194.094C546.344 205.24 544.417 215.031 540.562 223.469C536.708 231.854 531.188 238.312 524 242.844C516.865 247.323 508.635 249.562 499.312 249.562C490.094 249.562 481.865 247.323 474.625 242.844C467.438 238.312 461.865 231.88 457.906 223.547C454 215.214 452.021 205.604 451.969 194.719V188.312C451.969 177.219 453.922 167.427 457.828 158.938C461.786 150.448 467.333 143.964 474.469 139.484C481.656 134.953 489.885 132.688 499.156 132.688C508.427 132.688 516.63 134.927 523.766 139.406C530.953 143.833 536.5 150.24 540.406 158.625C544.312 166.958 546.292 176.672 546.344 187.766V194.094ZM526.578 188.156C526.578 175.552 524.182 165.891 519.391 159.172C514.651 152.453 507.906 149.094 499.156 149.094C490.615 149.094 483.922 152.453 479.078 159.172C474.286 165.839 471.839 175.292 471.734 187.531V194.094C471.734 206.594 474.156 216.255 479 223.078C483.896 229.901 490.667 233.312 499.312 233.312C508.062 233.312 514.781 229.979 519.469 223.312C524.208 216.646 526.578 206.906 526.578 194.094V188.156ZM656.812 194.094C656.812 205.24 654.885 215.031 651.031 223.469C647.177 231.854 641.656 238.312 634.469 242.844C627.333 247.323 619.104 249.562 609.781 249.562C600.562 249.562 592.333 247.323 585.094 242.844C577.906 238.312 572.333 231.88 568.375 223.547C564.469 215.214 562.49 205.604 562.438 194.719V188.312C562.438 177.219 564.391 167.427 568.297 158.938C572.255 150.448 577.802 143.964 584.938 139.484C592.125 134.953 600.354 132.688 609.625 132.688C618.896 132.688 627.099 134.927 634.234 139.406C641.422 143.833 646.969 150.24 650.875 158.625C654.781 166.958 656.76 176.672 656.812 187.766V194.094ZM637.047 188.156C637.047 175.552 634.651 165.891 629.859 159.172C625.12 152.453 618.375 149.094 609.625 149.094C601.083 149.094 594.391 152.453 589.547 159.172C584.755 165.839 582.307 175.292 582.203 187.531V194.094C582.203 206.594 584.625 216.255 589.469 223.078C594.365 229.901 601.135 233.312 609.781 233.312C618.531 233.312 625.25 229.979 629.938 223.312C634.677 216.646 637.047 206.906 637.047 194.094V188.156Z" fill="#542E71"/>
<path d="M676.5 248V134.25H710.094C720.146 134.25 729.052 136.49 736.812 140.969C744.625 145.448 750.667 151.802 754.938 160.031C759.208 168.26 761.344 177.688 761.344 188.312V194.016C761.344 204.797 759.182 214.276 754.859 222.453C750.589 230.63 744.469 236.932 736.5 241.359C728.583 245.786 719.495 248 709.234 248H676.5ZM696.266 150.188V232.219H709.156C719.521 232.219 727.464 228.99 732.984 222.531C738.557 216.021 741.396 206.698 741.5 194.562V188.234C741.5 175.891 738.818 166.464 733.453 159.953C728.089 153.443 720.302 150.188 710.094 150.188H696.266ZM871.812 194.094C871.812 205.24 869.885 215.031 866.031 223.469C862.177 231.854 856.656 238.312 849.469 242.844C842.333 247.323 834.104 249.562 824.781 249.562C815.562 249.562 807.333 247.323 800.094 242.844C792.906 238.312 787.333 231.88 783.375 223.547C779.469 215.214 777.49 205.604 777.438 194.719V188.312C777.438 177.219 779.391 167.427 783.297 158.938C787.255 150.448 792.802 143.964 799.938 139.484C807.125 134.953 815.354 132.688 824.625 132.688C833.896 132.688 842.099 134.927 849.234 139.406C856.422 143.833 861.969 150.24 865.875 158.625C869.781 166.958 871.76 176.672 871.812 187.766V194.094ZM852.047 188.156C852.047 175.552 849.651 165.891 844.859 159.172C840.12 152.453 833.375 149.094 824.625 149.094C816.083 149.094 809.391 152.453 804.547 159.172C799.755 165.839 797.307 175.292 797.203 187.531V194.094C797.203 206.594 799.625 216.255 804.469 223.078C809.365 229.901 816.135 233.312 824.781 233.312C833.531 233.312 840.25 229.979 844.938 223.312C849.677 216.646 852.047 206.906 852.047 194.094V188.156ZM982.281 194.094C982.281 205.24 980.354 215.031 976.5 223.469C972.646 231.854 967.125 238.312 959.938 242.844C952.802 247.323 944.573 249.562 935.25 249.562C926.031 249.562 917.802 247.323 910.562 242.844C903.375 238.312 897.802 231.88 893.844 223.547C889.938 215.214 887.958 205.604 887.906 194.719V188.312C887.906 177.219 889.859 167.427 893.766 158.938C897.724 150.448 903.271 143.964 910.406 139.484C917.594 134.953 925.823 132.688 935.094 132.688C944.365 132.688 952.568 134.927 959.703 139.406C966.891 143.833 972.438 150.24 976.344 158.625C980.25 166.958 982.229 176.672 982.281 187.766V194.094ZM962.516 188.156C962.516 175.552 960.12 165.891 955.328 159.172C950.589 152.453 943.844 149.094 935.094 149.094C926.552 149.094 919.859 152.453 915.016 159.172C910.224 165.839 907.776 175.292 907.672 187.531V194.094C907.672 206.594 910.094 216.255 914.938 223.078C919.833 229.901 926.604 233.312 935.25 233.312C944 233.312 950.719 229.979 955.406 223.312C960.146 216.646 962.516 206.906 962.516 194.094V188.156Z" fill="#FB3640"/>
</svg>
